<?xml version="1.0" encoding="UTF-8" standalone="no"?>
<svg
   xmlns:dc="http://purl.org/dc/elements/1.1/"
   xmlns:cc="http://creativecommons.org/ns#"
   xmlns:rdf="http://www.w3.org/1999/02/22-rdf-syntax-ns#"
   xmlns:svg="http://www.w3.org/2000/svg"
   xmlns="http://www.w3.org/2000/svg"
   xmlns:sodipodi="http://sodipodi.sourceforge.net/DTD/sodipodi-0.dtd"
   xmlns:inkscape="http://www.inkscape.org/namespaces/inkscape"
   role="img"
   aria-labelledby="title  desc"
   xml:space="preserve"
   enable-background="new 0 0 280 32.755"
   height="52.672001"
   width="52.672001"
   version="1.1"
   id="svg2"
   inkscape:version="0.91 r13725"
   sodipodi:docname="loader2.svg"><sodipodi:namedview
     pagecolor="#ff00ff"
     bordercolor="#666666"
     borderopacity="1"
     objecttolerance="10"
     gridtolerance="10"
     guidetolerance="10"
     inkscape:pageopacity="0"
     inkscape:pageshadow="2"
     inkscape:window-width="1440"
     inkscape:window-height="799"
     id="namedview14"
     showgrid="false"
     inkscape:zoom="4.2409802"
     inkscape:cx="97.736839"
     inkscape:cy="26.242526"
     inkscape:window-x="0"
     inkscape:window-y="1"
     inkscape:window-maximized="1"
     inkscape:current-layer="g4979"
     showguides="true"
     inkscape:guide-bbox="true"><sodipodi:guide
       position="-40.937703,52.936684"
       orientation="0,1"
       id="guide4977" /><sodipodi:guide
       position="53.670859,1.5189866"
       orientation="0,1"
       id="guide8916" /><sodipodi:guide
       position="64.935666,41.643525"
       orientation="1,0"
       id="guide8955" /><sodipodi:guide
       position="37.055679,27.262392"
       orientation="0,1"
       id="guide8957" /></sodipodi:namedview><rect
     id="backgroundrect"
     width="195.47368"
     height="34.210526"
     x="0"
     y="18.461473"
     class=""
     style="fill:none;stroke:none" /><title
     id="title"
     lang="en-GB">BBC micro:bit</title><desc
     id="desc"
     lang="en-GB">BBC micro:bit logo</desc><metadata
     id="metadata37"><rdf:rdf><cc:work
         rdf:about=""><dc:format>image/svg+xml</dc:format><dc:type
           rdf:resource="http://purl.org/dc/dcmitype/StillImage" /><dc:title /></cc:work></rdf:rdf><rdf:RDF><cc:Work
         rdf:about=""><dc:format>image/svg+xml</dc:format><dc:type
           rdf:resource="http://purl.org/dc/dcmitype/StillImage" /><dc:title>BBC micro:bit</dc:title></cc:Work></rdf:RDF></metadata><defs
     id="defs35" /><g
     id="g4979"
     transform="translate(59.257344,0.4913423)"><g
       id="g8504"
       transform="matrix(0.01862243,0,0,0.01862243,-25.400484,-21.026649)"><g
         id="layer6"
         style="fill:#ffd700;stroke:none"
         transform="translate(-7395.8652,67.439712)"><path
           id="path8465"
           d="m 6080.4436,3562.539 c -86,-74 -198,-205 -198,-231 0,-25 46,-105 109,-192 l 60,-84 -19,-46 c -10,-26 -28,-72 -40,-102 -12,-30 -23,-56 -24,-57 -1,-1 -61,-16 -133,-32 -143,-32 -186,-50 -205,-84 -18,-31 -18,-343 0,-374 18,-33 60,-51 169,-73 168,-35 171,-36 203,-99 15,-31 35,-73 43,-93 l 16,-37 -52,-73 c -79,-112 -127,-200 -127,-230 0,-21 19,-48 78,-110 94,-99 185,-176 217,-184 32,-8 88,21 208,107 l 96,69 98,-40 c 53,-22 98,-42 100,-43 1,-2 14,-63 28,-137 46,-236 41,-231 268,-231 207,-1 214,2 244,92 12,36 29,110 39,165 9,54 21,104 28,110 6,6 53,28 104,48 l 93,36 60,-45 c 86,-67 200,-135 225,-135 11,0 41,14 65,32 59,43 221,206 239,241 12,25 11,32 -9,75 -13,26 -54,93 -93,150 l -70,104 37,86 c 21,48 41,91 45,95 4,5 58,19 120,32 153,33 208,52 226,80 20,30 25,334 7,376 -15,35 -76,62 -203,89 -58,12 -113,26 -124,32 -18,10 -62,97 -85,171 -12,37 -12,39 37,105 77,105 112,167 112,200 0,20 -13,46 -38,79 -57,70 -219,222 -246,229 -29,7 -93,-25 -201,-100 -44,-31 -85,-56 -93,-56 -7,0 -30,9 -52,20 -57,29 -84,26 -117,-15 -25,-30 -263,-584 -263,-612 0,-6 27,-27 59,-47 86,-53 135,-113 156,-191 72,-265 -199,-481 -445,-355 -133,68 -195,238 -140,382 27,70 54,102 137,158 37,26 67,53 66,61 -3,25 -181,451 -225,539 -24,46 -51,89 -60,94 -17,11 -59,2 -123,-24 -30,-12 -35,-10 -127,54 -93,64 -153,96 -180,96 -7,0 -52,-34 -100,-75 z m 1792,-245 c 0,-3 -26,-41 -57,-86 -102,-143 -100,-135 -69,-245 15,-52 47,-135 71,-186 38,-81 48,-94 82,-108 32,-14 138,-41 241,-61 21,-4 22,-9 22,-84 l 0,-79 -37,-6 c -76,-13 -203,-45 -238,-59 -32,-14 -42,-28 -85,-118 -26,-57 -58,-133 -71,-170 -23,-65 -23,-67 -5,-105 10,-21 47,-81 82,-134 35,-53 64,-100 64,-105 0,-5 -26,-32 -57,-60 l -57,-51 -117,80 c -89,59 -126,79 -151,79 -41,0 -250,-79 -315,-119 -42,-26 -50,-36 -66,-89 -10,-32 -25,-103 -34,-157 l -16,-98 -79,3 c -43,2 -78,4 -78,5 -1,21 -45,231 -56,266 -15,44 -21,50 -85,83 -92,46 -160,73 -239,94 l -65,18 -45,-25 c -25,-15 -83,-53 -129,-86 l -84,-61 -54,58 c -29,31 -53,61 -53,65 0,5 35,62 77,126 58,89 77,125 76,150 -2,58 -115,309 -154,342 -17,14 -134,46 -229,63 l -65,11 -3,80 c -2,43 0,79 4,79 24,0 244,55 266,66 14,7 35,26 47,42 24,34 98,216 118,290 14,52 13,55 -13,100 -15,26 -50,79 -80,118 l -52,71 57,57 c 31,31 60,56 63,56 4,0 35,-20 70,-44 88,-61 121,-76 196,-90 l 66,-12 67,-160 c 37,-87 68,-165 68,-172 1,-7 -24,-42 -54,-77 -71,-84 -104,-151 -121,-246 -36,-207 75,-418 272,-517 71,-36 193,-55 272,-43 133,21 217,65 302,158 61,67 95,130 115,215 20,85 19,140 -5,234 -22,85 -46,128 -121,214 l -47,56 70,171 70,171 56,7 c 71,8 118,29 207,92 l 70,50 58,-56 c 31,-30 57,-58 57,-61 z"
           inkscape:connector-curvature="0" /></g></g></g></svg>